<?xml version="1.0" encoding="utf-8"?>
<!-- Generator: Adobe Illustrator 19.1.0, SVG Export Plug-In . SVG Version: 6.00 Build 0)  -->
<svg version="1.1" id="Layer_1" xmlns="http://www.w3.org/2000/svg" xmlns:xlink="http://www.w3.org/1999/xlink" x="0px" y="0px"
	 viewBox="-512 301.2 446.5 260.8" style="enable-background:new -512 301.2 446.5 260.8;" xml:space="preserve">
<style type="text/css">
	.st0{fill:none;stroke:#000000;stroke-width:6;stroke-miterlimit:10;}
	.st1{fill:#ADF05A;}
	.st2{font-family:'CapitalsRegular';}
	.st3{font-size:25.2939px;}
</style>
<line class="st0" x1="-68.5" y1="303.6" x2="-68.5" y2="556"/>
<line class="st0" x1="-509" y1="303.6" x2="-509" y2="556"/>
<line class="st0" x1="-197.6" y1="304.2" x2="-69" y2="304.2"/>
<line class="st0" x1="-69" y1="559" x2="-227" y2="559"/>
<line class="st0" x1="-380.4" y1="304.2" x2="-509" y2="304.2"/>
<g>
	<path class="st1" d="M-293.9,477c-63.6,0-115.1-26.8-115.1-60c0-1.6,0.1-3.3,0.4-4.9c4.8-30.9,54.3-55.1,114.7-55.1v-20.6l86.3,30
		l-86.3,26.1v-26.1c-53.6,0-97.2,22.7-97.2,50.6s43.6,50.6,97.2,50.6s97.2-22.5,97.2-50.6h17.9C-178.8,450.2-230.3,477-293.9,477z"
		/>
</g>
<text transform="matrix(1.4389 0 0 1 -182.4159 471.8494)" class="st1 st2 st3">I</text>
<line class="st0" x1="-351" y1="559" x2="-509" y2="559"/>
</svg>
