<?xml version="1.0" encoding="utf-8"?>
<!-- Generator: Adobe Illustrator 19.1.0, SVG Export Plug-In . SVG Version: 6.00 Build 0)  -->
<svg version="1.1" id="Layer_1" xmlns="http://www.w3.org/2000/svg" xmlns:xlink="http://www.w3.org/1999/xlink" x="0px" y="0px"
	 viewBox="-1024 582.4 446.5 320.3" style="enable-background:new -1024 582.4 446.5 320.3;" xml:space="preserve">
<style type="text/css">
	.st0{fill:none;stroke:#000000;stroke-width:6;stroke-miterlimit:10;}
	.st1{fill:#ADF05A;}
	.st2{font-family:'CapitalsRegular';}
	.st3{font-size:18.047px;}
	.st4{font-size:15px;}
</style>
<line class="st0" x1="-580.5" y1="604" x2="-580.5" y2="856.4"/>
<line class="st0" x1="-1021" y1="604" x2="-1021" y2="856.4"/>
<line class="st0" x1="-709.6" y1="604.6" x2="-581" y2="604.6"/>
<line class="st0" x1="-581" y1="859.4" x2="-739" y2="859.4"/>
<line class="st0" x1="-892.4" y1="604.6" x2="-1021" y2="604.6"/>
<line class="st0" x1="-863" y1="859.4" x2="-1021" y2="859.4"/>
<path class="st1" d="M-691.2,672.7h-50.4c-8.2,0-14.9,4-14.9,8.8c0,4.9,6.7,8.8,14.9,8.8h35.5v77.6h-206.1v-77.6h78.7l-24.2,14.4
	c-5.8,3.5-5.8,9,0,12.5c2.9,1.7,6.7,2.6,10.5,2.6s7.6-0.9,10.5-2.6l49.6-29.5c2.8-1.7,4.4-3.9,4.4-6.3c0-2.3-1.6-4.6-4.4-6.3
	l-49.6-29.5c-5.8-3.5-15.2-3.5-21.1,0c-5.8,3.5-5.8,9,0,12.5l24.2,14.4h-93.6c-8.2,0-14.9,4-14.9,8.8v95.2c0,4.9,6.7,8.8,14.9,8.8
	h235.9c8.2,0,14.9-4,14.9-8.8v-95.2C-676.3,676.7-683,672.7-691.2,672.7z"/>
<text transform="matrix(1.0563 0 0 1 -946.7471 850.244)" class="st1 st2 st3">V=1.5V</text>
<text transform="matrix(1.0563 0 0 1 -809.1646 721.6707)" class="st1 st2 st3">I=.5A</text>
<text transform="matrix(1.0563 0 0 1 -709.6001 633.2547)" class="st1 st2 st3">r=</text>
<text transform="matrix(1.0563 0 0 1 -683.7207 633.2547)" class="st1 st2 st4">3Ω</text>
<text transform="matrix(1.0563 0 0 1 -659.9536 633.2547)" class="st1 st2 st3"> </text>
<image style="overflow:visible;" width="313" height="200" xlink:href="bat_pos_left.png"  transform="matrix(0.4377 0 0 0.427 -869.25 817.3229)">
</image>
<image style="overflow:visible;" width="600" height="134" xlink:href="resistor copy.png"  transform="matrix(0.3123 0 0 0.3231 -894.9532 582.4295)">
</image>
</svg>
