<?xml version="1.0" encoding="utf-8"?>
<!-- Generator: Adobe Illustrator 19.1.0, SVG Export Plug-In . SVG Version: 6.00 Build 0)  -->
<svg version="1.1" id="Layer_1" xmlns="http://www.w3.org/2000/svg" xmlns:xlink="http://www.w3.org/1999/xlink" x="0px" y="0px"
	 viewBox="-223 49.8 512 462.2" style="enable-background:new -223 49.8 512 462.2;" xml:space="preserve">
<style type="text/css">
	.st0{fill:#ADF05A;}
</style>
<path class="st0" d="M260,145.5h-97.2c-15.9,0-28.7,12.9-28.7,28.7s12.8,28.7,28.7,28.7h68.5v251.8h-397.2V202.8h151.7L-61,249.6
	c-11.2,11.2-11.2,29.4,0,40.6c5.6,5.6,13,8.4,20.3,8.4s14.7-2.8,20.3-8.4l95.7-95.7c5.4-5.4,8.4-12.7,8.4-20.3
	c0-7.6-3-14.9-8.4-20.3l-95.7-95.7C-31.6,47-49.8,47-61,58.2c-11.2,11.2-11.2,29.4,0,40.6l46.6,46.6h-180.3
	c-15.8,0-28.7,12.9-28.7,28.7v309.2c0,15.8,12.9,28.7,28.7,28.7H260c15.8,0,28.7-12.9,28.7-28.7V174.2
	C288.7,158.3,275.8,145.5,260,145.5z"/>
</svg>
